<?xml version="1.0" encoding="iso-8859-1"?>
<!-- Generator: Adobe Illustrator 19.0.0, SVG Export Plug-In . SVG Version: 6.00 Build 0)  -->
<svg version="1.1" id="Layer_1" xmlns="http://www.w3.org/2000/svg" xmlns:xlink="http://www.w3.org/1999/xlink" x="0px" y="0px"
	 viewBox="0 0 470.9 470.9" style="enable-background:new 0 0 470.9 470.9;" xml:space="preserve">
<g>
	<g>
		<path d="M389.9,67.144c0-3.3-2.7-5.9-6-5.9c0,0,0,0-0.1,0c-3.3,0-6,2.8-5.9,6.1l0.3,26.7l-3.9-3.8c-80-78.2-208.8-76.7-287,3.3
			c-2.3,2.4-2.3,6.2,0.1,8.5s6.2,2.3,8.5-0.1c73.6-75.3,194.7-76.7,270-3.1l3.9,3.8l-26.7,0.3c-3.3,0.1-6,2.8-5.9,6.1
			c0,3.3,2.7,5.9,6,5.9c0,0,0,0,0.1,0l41.2-0.5c3.3,0,6-2.8,5.9-6.1L389.9,67.144z"/>
	</g>
</g>
<g>
	<g>
		<path d="M377.5,368.744c-2.4-2.3-6.2-2.3-8.5,0.1c-35.6,36.5-83.4,56.9-134.4,57.5c-51,0.6-99.2-18.7-135.6-54.4l-3.9-3.8
			l26.7-0.3c3.3,0,6-2.8,5.9-6.1c-0.1-3.3-2.8-6-6.1-5.9l-41.2,0.5c-3.3,0-6,2.8-5.9,6.1l0.5,41.2c0,3.3,2.7,5.9,6,5.9
			c0,0,0,0,0.1,0c3.3,0,6-2.8,5.9-6.1l-0.3-26.7l3.9,3.8c38.2,37.4,88.5,57.8,141.8,57.8c0.8,0,1.6,0,2.4,0
			c54.2-0.6,104.9-22.3,142.8-61.1C379.9,374.844,379.9,371.044,377.5,368.744z"/>
	</g>
</g>
<g>
	<g>
		<path d="M174.8,293.644c-19.7-16.2-40.8-27.6-48.8-31.7v-28.3c4.5-4.1,7.1-9.9,7.1-16.1v-35.1c0-20.8-16.9-37.7-37.7-37.7h-7.6
			c-20.8,0-37.7,16.9-37.7,37.7v35.2c0,6.2,2.6,12,7.1,16.1v28.3c-8,4.1-29.1,15.5-48.8,31.7c-5.3,4.4-8.4,10.9-8.4,17.8v24.1
			c0,3.3,2.7,6,6,6c3.3,0,6-2.7,6-6v-24.1c0-3.3,1.5-6.4,4-8.5c21.3-17.5,44.5-29.2,48.9-31.4c2.6-1.3,4.2-3.9,4.2-6.8v-33.9
			c0-2-1-3.9-2.7-5c-2.8-1.8-4.4-4.9-4.4-8.2v-35.3c0.1-14.1,11.7-25.7,25.9-25.7h7.6c14.2,0,25.7,11.5,25.7,25.7v35.2
			c0,3.3-1.6,6.4-4.4,8.2c-1.7,1.1-2.7,3-2.7,5v33.9c0,2.9,1.7,5.5,4.2,6.8c4.4,2.2,27.6,13.8,48.9,31.4c2.5,2.1,4,5.2,4,8.5v24.1
			c0,3.3,2.7,6,6,6s6-2.7,6-6v-24.1C183.2,304.544,180.1,298.044,174.8,293.644z"/>
	</g>
</g>
<g>
	<g>
		<path d="M462.5,293.744c-19.7-16.2-40.8-27.6-48.8-31.7v-28.3c4.5-4.1,7.1-9.9,7.1-16.1v-35.2c0-20.8-16.9-37.7-37.7-37.7h-7.6
			c-20.8,0-37.7,16.9-37.7,37.7v35.2c0,6.2,2.6,12,7.1,16.1v28.3c-8,4.1-29.1,15.5-48.8,31.7c-5.3,4.4-8.4,10.9-8.4,17.8v24.1
			c0,3.3,2.7,6,6,6s6-2.7,6-6v-24.1c0-3.3,1.5-6.4,4-8.5c21.3-17.5,44.5-29.2,48.9-31.4c2.6-1.3,4.2-3.9,4.2-6.8v-33.9
			c0-2-1-3.9-2.7-5c-2.8-1.8-4.4-4.9-4.4-8.2v-35.3c0-14.2,11.5-25.7,25.7-25.7h7.6c14.2,0,25.7,11.5,25.7,25.7v35.2
			c0,3.3-1.6,6.4-4.4,8.2c-1.7,1.1-2.7,3-2.7,5v33.9c0,2.9,1.7,5.5,4.2,6.8c4.4,2.2,27.6,13.8,48.9,31.4c2.5,2.1,4,5.2,4,8.5v24.1
			c0.2,3.5,2.9,6.1,6.2,6.1s6-2.7,6-6v-24.1C470.9,304.644,467.8,298.144,462.5,293.744z"/>
	</g>
</g>
<g>
</g>
<g>
</g>
<g>
</g>
<g>
</g>
<g>
</g>
<g>
</g>
<g>
</g>
<g>
</g>
<g>
</g>
<g>
</g>
<g>
</g>
<g>
</g>
<g>
</g>
<g>
</g>
<g>
</g>
</svg>
